<svg xmlns="http://www.w3.org/2000/svg" fill="#ffffff" viewBox="0 0 24 24" aria-hidden="true">
  <path d="M19.722 10.2a.378.378 0 0 1-.369-.279 7.39 7.39 0 0 0-.684-1.647.378.378 0 0 1 .054-.45 1.271 1.271 0 0 0 0-1.809l-.729-.729a1.271 1.271 0 0 0-1.809 0 .367.367 0 0 1-.45.054 7.642 7.642 0 0 0-1.656-.684.394.394 0 0 1-.279-.369C13.8 3.576 13.224 3 12.513 3h-1.035c-.702 0-1.278.576-1.278 1.287a.375.375 0 0 1-.279.36 7.642 7.642 0 0 0-1.656.684.378.378 0 0 1-.45-.054 1.271 1.271 0 0 0-1.809 0l-.738.729a1.271 1.271 0 0 0 0 1.809.367.367 0 0 1 .054.45 8.305 8.305 0 0 0-.675 1.656.375.375 0 0 1-.36.279h-.009C3.576 10.2 3 10.776 3 11.478v1.044c0 .711.576 1.278 1.278 1.278h.009c.171 0 .315.117.36.279a7.39 7.39 0 0 0 .684 1.647.378.378 0 0 1-.054.45 1.271 1.271 0 0 0 0 1.809l.729.729a1.271 1.271 0 0 0 1.809 0 .367.367 0 0 1 .45-.054 7.57 7.57 0 0 0 1.647.684.392.392 0 0 1 .288.369v.009c0 .702.567 1.278 1.278 1.278h1.044c.702 0 1.278-.576 1.278-1.278 0-.171.117-.315.279-.36a7.39 7.39 0 0 0 1.647-.684.378.378 0 0 1 .45.054 1.271 1.271 0 0 0 1.809 0l.729-.729a1.271 1.271 0 0 0 0-1.809.367.367 0 0 1-.054-.45 7.57 7.57 0 0 0 .684-1.647.375.375 0 0 1 .36-.279h.009c.702 0 1.278-.576 1.278-1.278v-1.062a1.27 1.27 0 0 0-1.269-1.278zM12 15.15A3.153 3.153 0 0 1 8.85 12 3.153 3.153 0 0 1 12 8.85 3.153 3.153 0 0 1 15.15 12 3.153 3.153 0 0 1 12 15.15z"></path>
</svg>